<?xml version="1.0" encoding="utf-8"?>
<!-- Generator: Adobe Illustrator 17.0.0, SVG Export Plug-In . SVG Version: 6.00 Build 0)  -->
<!DOCTYPE svg PUBLIC "-//W3C//DTD SVG 1.1//EN" "http://www.w3.org/Graphics/SVG/1.1/DTD/svg11.dtd">
<svg version="1.1" id="Layer_1" xmlns="http://www.w3.org/2000/svg" xmlns:xlink="http://www.w3.org/1999/xlink" x="0px" y="0px"
	 width="300px" height="300px" viewBox="0 0 300 300" enable-background="new 0 0 300 300" xml:space="preserve">
<g>
	<g>
		<path fill="#849326" d="M114.353,228.192C159.786,258.81,243.518,267.945,300,214.82
			C256.078,179.645,138.472,187.257,114.353,228.192z"/>
		<path fill="#9DA833" d="M140.629,228.362c22.329,17.508,134.987,2.537,138.031-9.134
			C230.958,229.884,162.45,228.743,140.629,228.362z"/>
	</g>
	<g>
		<path fill="#849326" d="M154.215,202.855c36.78,2.671,106.43-79.539,101.857-155.784
			C170.442,74.98,136.266,158.863,154.215,202.855z"/>
		<path fill="#9DA833" d="M148.603,165.089c19.429,7.959,81.975-88.207,93.896-101.586
			C237.428,60.39,168.539,140.824,148.603,165.089z"/>
	</g>
	<g>
		
			<ellipse transform="matrix(0.9591 -0.283 0.283 0.9591 -43.9408 35.0722)" fill="#CEB93E" cx="99.408" cy="169.608" rx="99.876" ry="79.854"/>
		
			<ellipse transform="matrix(0.9382 -0.346 0.346 0.9382 -40.2562 69.3607)" fill="#6B6029" cx="174.122" cy="147.421" rx="15.732" ry="25.627"/>
		<path fill="#E5DFC3" d="M37.105,224.302c31.971,22.836,120.27,23.851,141.584-39.075
			C145.196,219.228,96.986,225.317,37.105,224.302z"/>
		<path fill="#BFAB19" d="M16.573,221.633c-68.015-84.37,90.484-186.52,165.328-104.613
			C104.426,99.785,41.628,140.334,16.573,221.633z"/>
	</g>
</g>
</svg>
