<?xml version="1.0" encoding="utf-8"?>
<!-- Generator: Adobe Illustrator 17.1.0, SVG Export Plug-In . SVG Version: 6.00 Build 0)  -->
<!DOCTYPE svg PUBLIC "-//W3C//DTD SVG 1.1//EN" "http://www.w3.org/Graphics/SVG/1.1/DTD/svg11.dtd">
<svg version="1.1" id="Layer_1" xmlns="http://www.w3.org/2000/svg" xmlns:xlink="http://www.w3.org/1999/xlink" x="0px" y="0px"
	 viewBox="0 0 18 18" enable-background="new 0 0 18 18" xml:space="preserve">
<g>
	<path d="M12.8,2.5c0.3,0.3,0.5,0.7,0.5,1.2c0,0.3-0.1,0.6-0.2,0.9S12.7,5,12.4,5.2v1.5L9.9,9.3v1.5c0.3,0.2,0.5,0.4,0.6,0.6
		s0.2,0.5,0.2,0.9c0,0.5-0.2,0.9-0.5,1.2S9.5,14,9,14c-0.5,0-0.9-0.2-1.2-0.5c-0.3-0.3-0.5-0.7-0.5-1.2c0-0.3,0.1-0.6,0.2-0.9
		s0.4-0.5,0.6-0.6V9.3L5.6,6.7V5.2C5.3,5,5.1,4.8,4.9,4.6S4.7,4,4.7,3.7c0-0.5,0.2-0.9,0.5-1.2C5.5,2.2,5.9,2,6.4,2
		c0.5,0,0.9,0.2,1.2,0.5C8,2.8,8.1,3.2,8.1,3.7c0,0.3-0.1,0.6-0.2,0.9C7.8,4.8,7.5,5,7.3,5.2v1.1L9,8l1.7-1.7V5.2
		c-0.3-0.2-0.5-0.4-0.6-0.6S9.9,4,9.9,3.7c0-0.5,0.2-0.9,0.5-1.2C10.7,2.2,11.1,2,11.6,2C12.1,2,12.5,2.2,12.8,2.5z M7.2,4.4
		C7.3,4.2,7.4,4,7.4,3.7S7.3,3.2,7.2,3C7,2.8,6.7,2.7,6.4,2.7C6.1,2.7,5.9,2.8,5.7,3C5.5,3.2,5.4,3.4,5.4,3.7s0.1,0.5,0.3,0.7
		c0.2,0.2,0.4,0.3,0.7,0.3C6.7,4.7,7,4.6,7.2,4.4z M9.7,13c0.2-0.2,0.3-0.4,0.3-0.7s-0.1-0.5-0.3-0.7S9.3,11.3,9,11.3
		s-0.5,0.1-0.7,0.3S8,12,8,12.3s0.1,0.5,0.3,0.7c0.2,0.2,0.4,0.3,0.7,0.3C9.3,13.3,9.5,13.2,9.7,13z M12.3,4.4
		c0.2-0.2,0.3-0.4,0.3-0.7S12.5,3.2,12.3,3c-0.2-0.2-0.4-0.3-0.7-0.3S11,2.8,10.8,3s-0.3,0.4-0.3,0.7s0.1,0.5,0.3,0.7
		s0.4,0.3,0.7,0.3C11.9,4.7,12.1,4.6,12.3,4.4z"/>
</g>
</svg>
